<svg
  width="180"
  height="54"
  viewBox="0 0 180 54"
  xmlns="http://www.w3.org/2000/svg"
>
  <!-- Background -->
  <rect
    x="0"
    y="0"
    width="180"
    height="54"
    rx="8"
    fill="#2F2F2F"
  />

  <!-- Apple Logo -->
  <path
    d="M34.9 14.2c1.6-2 1.3-4.8 1.3-4.8s-2.6.2-4.3 2.2
       c-1.4 1.6-1.5 4.4-1.5 4.4s2.8.3 4.5-1.8z"
    fill="#FFFFFF"
  />
  <path
    d="M39.5 28.7c-.1-4.4 3.6-6.5 3.7-6.6
       -2-2.9-5.2-3.3-6.3-3.4
       -2.7-.3-5.2 1.6-6.6 1.6
       -1.4 0-3.6-1.5-5.9-1.4
       -3 .1-5.8 1.8-7.4 4.5
       -3.1 5.4-.8 13.4 2.2 17.8
       1.5 2.2 3.3 4.7 5.6 4.6
       2.2-.1 3-1.4 5.7-1.4
       2.6 0 3.4 1.4 5.8 1.3
       2.4 0 3.9-2.2 5.4-4.4
       1.7-2.5 2.4-4.9 2.5-5
       -.1 0-4.8-1.8-4.7-7.6z"
    fill="#FFFFFF"
  />

  <!-- Text -->
  <text
    x="64"
    y="22"
    font-family="Arial, Helvetica, sans-serif"
    font-size="9"
    fill="#BDBDBD"
    letter-spacing="0.5"
  >
    Download on the
  </text>

  <text
    x="64"
    y="38"
    font-family="Arial, Helvetica, sans-serif"
    font-size="16"
    font-weight="700"
    fill="#FFFFFF"
  >
    App Store
  </text>
</svg>
